#!OML:ASF X:\für Bonn\!DataBase\2005_08_10_Bjorn_Final\c3d\bjorn.ASF
:FULLY-SPECIFIED
:DEGREES
159
root -21.6088 19.3696 1.0231 174.365 -87.5394 -173.373
lowerback -10.6823 3.2562 -1.31946
upperback 9.07961 4.8465 -2.59877
thorax 16.4007 2.19642 -1.042
lowerneck -1.64822 -7.74627 3.45522
upperneck 27.2814 -14.3848 6.98452
head 9.20884 -6.19622 0.546734
rclavicle -1.41137e-014 -2.3059e-014
rhumerus -8.52548 -20.6216 -79.3044
rradius 117.016
rwrist -6.66402
rhand -29.7353 14.0999
rfingers 7.12502
rthumb -3.06179 -15.8579
lclavicle -1.41137e-014 -2.3059e-014
lhumerus -19.9802 27.2936 80.8283
lradius 10.1794
lwrist -59.6642
lhand -16.7016 -6.69592
lfingers 7.12502
lthumb 9.52327 23.0689
rfemur -8.75302 -9.39117 14.6184
rtibia 24.983
rfoot -10.2589 18.0558
rtoes -3.1206
lfemur -7.09046 12.8837 -16.782
ltibia 24.6312
lfoot -11.3661 -9.49516
ltoes -1.97255
160
root -21.5996 19.3627 1.0357 174.514 -87.301 -173.834
lowerback -10.3859 3.21342 -0.962611
upperback 9.40857 4.67724 -2.34547
thorax 16.6174 2.13349 -1.00808
lowerneck -1.69552 -7.77477 3.48779
upperneck 27.1301 -14.3765 6.89619
head 9.15188 -6.19741 0.514551
rclavicle -5.08889e-014 4.77083e-015
rhumerus -9.86406 -21.7318 -79.7559
rradius 116.571
rwrist -6.79205
rhand -30.0824 14.392
rfingers 7.12502
rthumb -3.39707 -15.5607
lclavicle -5.08889e-014 4.77083e-015
lhumerus -19.3684 25.6608 81.9214
lradius 10.2355
lwrist -58.3973
lhand -16.7389 -6.68331
lfingers 7.12502
lthumb 9.48726 23.0831
rfemur -8.4863 -9.0958 14.5578
rtibia 25.0218
rfoot -10.339 17.9646
rtoes -3.35079
lfemur -6.76006 12.6313 -16.7877
ltibia 24.6984
lfoot -11.5498 -9.03226
ltoes -2.36827
161
root -21.5897 19.3534 1.04866 174.816 -87.064 -174.484
lowerback -10.042 3.1578 -0.598413
upperback 9.75409 4.48683 -2.10634
thorax 16.8266 2.0626 -1.00085
lowerneck -1.70976 -7.79393 3.51742
upperneck 26.9033 -14.348 6.84354
head 9.06463 -6.19068 0.499884
rclavicle 9.54166e-015 -1.90833e-014
rhumerus -11.1546 -22.7451 -80.0984
rradius 115.951
rwrist -6.98967
rhand -30.4585 14.4257
rfingers 7.12502
rthumb -3.76026 -15.5209
lclavicle 9.54166e-015 -1.90833e-014
lhumerus -18.777 23.766 83.0145
lradius 10.3412
lwrist -56.8893
lhand -16.8248 -6.70539
lfingers 7.12502
lthumb 9.40439 23.0648
rfemur -8.1888 -8.81583 14.476
rtibia 25.0761
rfoot -10.4012 17.8979
rtoes -3.53425
lfemur -6.38844 12.3061 -16.8085
ltibia 24.7694
lfoot -11.7291 -8.53219
ltoes -2.57719
162
root -21.5784 19.3455 1.06158 174.794 -86.8249 -174.803
lowerback -9.68797 3.10359 -0.217916
upperback 10.1046 4.29139 -1.85239
thorax 17.0364 1.99003 -0.986314
lowerneck -1.6997 -7.81473 3.51461
upperneck 26.639 -14.3164 6.8169
head 8.96402 -6.18521 0.501358
rclavicle -6.36111e-014 4.45278e-014
rhumerus -12.3643 -23.6717 -80.2984
rradius 115.064
rwrist -7.24232
rhand -30.941 14.1438
rfingers 7.12502
rthumb -4.22619 -15.794
lclavicle -6.36111e-014 4.45278e-014
lhumerus -18.2001 21.7494 84.1024
lradius 10.4736
lwrist -55.3637
lhand -16.9548 -6.74711
lfingers 7.12502
lthumb 9.27895 23.0287
rfemur -7.91068 -8.50627 14.4188
rtibia 25.1392
rfoot -10.4993 17.7849
rtoes -3.87245
lfemur -6.0319 12.0101 -16.8168
ltibia 24.8464
lfoot -11.879 -8.05891
ltoes -2.75159
163
root -21.5669 19.3356 1.07511 175.417 -86.5804 -175.781
lowerback -9.32317 3.05666 0.153506
upperback 10.4699 4.10871 -1.62736
thorax 17.262 1.9241 -0.995767
lowerneck -1.64742 -7.83804 3.54297
upperneck 26.2845 -14.2834 6.83397
head 8.8261 -6.17779 0.516769
rclavicle 2.36554e-014 8.74653e-015
rhumerus -13.5117 -24.6059 -80.4685
rradius 113.936
rwrist -7.54541
rhand -31.3886 13.6803
rfingers 7.12502
rthumb -4.65838 -16.2485
lclavicle 2.36554e-014 8.74653e-015
lhumerus -17.642 19.3369 85.2177
lradius 10.6957
lwrist -53.4457
lhand -17.0725 -6.69159
lfingers 7.12502
lthumb 9.16538 23.0892
rfemur -7.63629 -8.2876 14.3032
rtibia 25.222
rfoot -10.5596 17.7946
rtoes -4.07302
lfemur -5.66177 11.6961 -16.8789
ltibia 24.9243
lfoot -12.067 -7.54611
ltoes -3.08314
164
root -21.5536 19.3265 1.0893 175.447 -86.3487 -176.181
lowerback -8.90807 2.99745 0.561395
upperback 10.8421 3.89719 -1.38369
thorax 17.4646 1.84792 -1.01212
lowerneck -1.59629 -7.85342 3.55065
upperneck 25.9128 -14.2332 6.8511
head 8.68379 -6.16445 0.53711
rclavicle -1.80894e-014 -7.55382e-015
rhumerus -14.5663 -25.5022 -80.5807
rradius 112.554
rwrist -7.9326
rhand -31.7916 13.1722
rfingers 7.12502
rthumb -5.04748 -16.7477
lclavicle -1.80894e-014 -7.55382e-015
lhumerus -17.1394 16.8914 86.3063
lradius 10.9817
lwrist -51.4937
lhand -17.147 -6.61496
lfingers 7.12502
lthumb 9.09348 23.169
rfemur -7.35007 -8.02775 14.2242
rtibia 25.3183
rfoot -10.651 17.7324
rtoes -4.32623
lfemur -5.29182 11.415 -16.9064
ltibia 25.0073
lfoot -12.2122 -7.09297
ltoes -3.17834
165
root -21.5402 19.3168 1.10356 176.271 -86.0961 -177.381
lowerback -8.48637 2.95038 0.926246
upperback 11.2239 3.71017 -1.15944
thorax 17.676 1.77871 -1.01957
lowerneck -1.51039 -7.86832 3.53339
upperneck 25.4782 -14.1883 6.95012
head 8.52281 -6.1527 0.590517
rclavicle 1.40143e-014 1.35174e-014
rhumerus -15.5446 -26.3127 -80.5963
rradius 110.979
rwrist -8.50176
rhand -32.2161 12.6661
rfingers 7.12502
rthumb -5.45739 -17.2436
lclavicle 1.40143e-014 1.35174e-014
lhumerus -16.6754 14.1762 87.3898
lradius 11.36
lwrist -49.3252
lhand -17.2071 -6.47066
lfingers 7.12502
lthumb 9.03551 23.3158
rfemur -7.08221 -7.83615 14.0763
rtibia 25.4373
rfoot -10.7012 17.751
rtoes -4.61449
lfemur -4.91221 11.1682 -16.9993
ltibia 25.0915
lfoot -12.3601 -6.65158
ltoes -3.29697
166
root -21.525 19.3051 1.11837 176.92 -85.8576 -178.436
lowerback -8.00734 2.88983 1.30371
upperback 11.6176 3.50007 -0.93973
thorax 17.8662 1.70051 -1.04558
lowerneck -1.38396 -7.88213 3.57207
upperneck 24.9813 -14.1198 7.00314
head 8.32589 -6.13311 0.625732
rclavicle 1.37161e-014 -5.96354e-016
rhumerus -16.3751 -27.0145 -80.5786
rradius 109.119
rwrist -9.18371
rhand -32.6493 12.2578
rfingers 7.12502
rthumb -5.87567 -17.6407
lclavicle 1.37161e-014 -5.96354e-016
lhumerus -16.2833 11.4117 88.4021
lradius 11.8292
lwrist -47.0874
lhand -17.2372 -6.28986
lfingers 7.12502
lthumb 9.0065 23.4979
rfemur -6.79833 -7.68636 13.9222
rtibia 25.5753
rfoot -10.7682 17.8061
rtoes -4.88818
lfemur -4.51737 10.9495 -17.0857
ltibia 25.1795
lfoot -12.4871 -6.26717
ltoes -3.43861
167
root -21.5089 19.2942 1.13337 177.83 -85.6174 -179.753
lowerback -7.51684 2.82336 1.65694
upperback 12.0259 3.28428 -0.727949
thorax 18.0681 1.61647 -1.06707
lowerneck -1.27454 -7.89254 3.60827
upperneck 24.4794 -14.0491 7.0679
head 8.13287 -6.11125 0.664145
rclavicle -9.0447e-015 1.33186e-014
rhumerus -17.0037 -27.6872 -80.6025
rradius 106.952
rwrist -9.96526
rhand -33.0788 12.2027
rfingers 7.12502
rthumb -6.29031 -17.6839
lclavicle -9.0447e-015 1.33186e-014
lhumerus -15.9131 8.76575 89.3238
lradius 12.3457
lwrist -44.9551
lhand -17.2714 -6.10958
lfingers 7.12502
lthumb 8.97346 23.6796
rfemur -6.52594 -7.54612 13.7344
rtibia 25.734
rfoot -10.8631 17.8645
rtoes -5.35146
lfemur -4.12231 10.7499 -17.2064
ltibia 25.2667
lfoot -12.6224 -5.88576
ltoes -3.5048
168
root -21.4907 19.2816 1.14859 178.95 -85.3764 -181.294
lowerback -6.99934 2.75543 1.99399
upperback 12.4545 3.06855 -0.53626
thorax 18.2808 1.53122 -1.10168
lowerneck -1.16358 -7.90459 3.69074
upperneck 23.9238 -13.9787 7.14994
head 7.92137 -6.0868 0.701888
rclavicle -2.95723e-014 8.79622e-015
rhumerus -17.425 -28.333 -80.6708
rradius 104.57
rwrist -10.9375
rhand -33.4819 12.3543
rfingers 7.12502
rthumb -6.6794 -17.5204
lclavicle -2.95723e-014 8.79622e-015
lhumerus -15.5576 6.1149 90.1413
lradius 12.9271
lwrist -42.8489
lhand -17.265 -5.96352
lfingers 7.12502
lthumb 8.97966 23.8254
rfemur -6.26347 -7.45963 13.5123
rtibia 25.9127
rfoot -10.9204 17.978
rtoes -5.70877
lfemur -3.72885 10.6016 -17.3485
ltibia 25.3586
lfoot -12.719 -5.58511
ltoes -3.48996
169
root -21.4716 19.2702 1.1648 179.753 -85.1258 -182.511
lowerback -6.45688 2.68954 2.36527
upperback 12.8795 2.84984 -0.35148
thorax 18.4774 1.44958 -1.1629
lowerneck -1.02219 -7.9231 3.83936
upperneck 23.3488 -13.9067 7.18884
head 7.69227 -6.06245 0.717751
rclavicle -4.89507e-015 5.56597e-015
rhumerus -17.6821 -29.006 -80.769
rradius 101.994
rwrist -11.9986
rhand -33.7548 12.4828
rfingers 7.12502
rthumb -6.94284 -17.3833
lclavicle -4.89507e-015 5.56597e-015
lhumerus -15.2448 3.49467 90.8649
lradius 13.5508
lwrist -40.7572
lhand -17.3227 -5.86775
lfingers 7.12502
lthumb 8.92391 23.9235
rfemur -6.02162 -7.37804 13.3059
rtibia 26.1043
rfoot -11.0007 18.088
rtoes -6.20635
lfemur -3.34845 10.4471 -17.4866
ltibia 25.4529
lfoot -12.8303 -5.25175
ltoes -3.49498
170
root -21.4506 19.2569 1.18116 180.886 -84.8745 -184.074
lowerback -5.88406 2.61318 2.6885
upperback 13.3235 2.61963 -0.159393
thorax 18.6759 1.354 -1.19043
lowerneck -0.878036 -7.94793 4.0084
upperneck 22.7375 -13.82 7.1608
head 7.44531 -6.03604 0.71146
rclavicle -9.83984e-015 -9.93923e-015
rhumerus -17.7591 -29.6028 -80.8223
rradius 99.3329
rwrist -13.3059
rhand -33.9204 12.2406
rfingers 7.12502
rthumb -7.10275 -17.6203
lclavicle -9.83984e-015 -9.93923e-015
lhumerus -14.9338 1.11262 91.5103
lradius 14.2145
lwrist -38.8746
lhand -17.4286 -5.74518
lfingers 7.12502
lthumb 8.82181 24.0504
rfemur -5.78488 -7.30737 13.0486
rtibia 26.3146
rfoot -11.051 18.2288
rtoes -6.54158
lfemur -2.96131 10.3489 -17.6603
ltibia 25.5488
lfoot -12.9032 -4.95988
ltoes -3.51496
171
root -21.4278 19.2447 1.19792 181.709 -84.6145 -185.327
lowerback -5.26597 2.55257 3.04199
upperback 13.7614 2.40604 0.0348464
thorax 18.8413 1.2692 -1.22781
lowerneck -0.70117 -8.00261 4.26081
upperneck 22.103 -13.7598 7.06845
head 7.17808 -6.02342 0.673142
rclavicle 5.52621e-014 -2.64384e-014
rhumerus -17.7396 -30.1956 -80.8365
rradius 96.6326
rwrist -14.7117
rhand -33.9677 11.6871
rfingers 7.12502
rthumb -7.14835 -18.1722
lclavicle 5.52621e-014 -2.64384e-014
lhumerus -14.6591 -1.22585 92.058
lradius 14.9325
lwrist -37.1528
lhand -17.5107 -5.51348
lfingers 7.12502
lthumb 8.7425 24.2855
rfemur -5.55896 -7.24806 12.8122
rtibia 26.5309
rfoot -11.0994 18.3723
rtoes -6.89756
lfemur -2.59013 10.2865 -17.813
ltibia 25.6563
lfoot -12.9929 -4.7065
ltoes -3.6592
172
root -21.4039 19.2316 1.21515 182.512 -84.3332 -186.559
lowerback -4.62622 2.49738 3.38273
upperback 14.2089 2.19473 0.260687
thorax 19.0051 1.17862 -1.21916
lowerneck -0.58285 -8.07158 4.48302
upperneck 21.506 -13.7152 6.92585
head 6.93375 -6.0197 0.619536
rclavicle 4.7112e-014 -1.59028e-014
rhumerus -17.5851 -30.6896 -80.7336
rradius 93.7825
rwrist -16.3181
rhand -34.1281 11.3466
rfingers 7.12502
rthumb -7.30319 -18.5074
lclavicle 4.7112e-014 -1.59028e-014
lhumerus -14.3677 -3.21277 92.5727
lradius 15.6489
lwrist -35.7911
lhand -17.6139 -5.33304
lfingers 7.12502
lthumb 8.64294 24.47
rfemur -5.35377 -7.18742 12.5601
rtibia 26.7628
rfoot -11.1374 18.5476
rtoes -7.22619
lfemur -2.22144 10.2139 -17.9803
ltibia 25.7669
lfoot -13.0767 -4.44904
ltoes -3.47153
173
root -21.3787 19.2183 1.23317 183.346 -84.0563 -187.811
lowerback -3.95715 2.44923 3.7276
upperback 14.6418 1.99484 0.482673
thorax 19.1338 1.09331 -1.21322
lowerneck -0.41537 -8.15342 4.70393
upperneck 20.8613 -13.6869 6.82102
head 6.67073 -6.02544 0.581415
rclavicle -1.74931e-014 1.35174e-014
rhumerus -17.3558 -31.0836 -80.5862
rradius 90.8575
rwrist -18.2005
rhand -34.4655 11.3661
rfingers 7.12502
rthumb -7.62894 -18.4763
lclavicle -1.74931e-014 1.35174e-014
lhumerus -14.1102 -5.11064 93.0405
lradius 16.3518
lwrist -34.3102
lhand -17.841 -5.29831
lfingers 7.12502
lthumb 8.42381 24.5137
rfemur -5.16465 -7.1287 12.295
rtibia 26.9963
rfoot -11.1788 18.7078
rtoes -7.57267
lfemur -1.88879 10.1786 -18.164
ltibia 25.8943
lfoot -13.1605 -4.20459
ltoes -3.60811
